<?xml version="1.0" encoding="utf-8"?>
<!-- Generator: Adobe Illustrator 27.5.0, SVG Export Plug-In . SVG Version: 6.00 Build 0)  -->
<svg version="1.1" xmlns="http://www.w3.org/2000/svg" xmlns:xlink="http://www.w3.org/1999/xlink" x="0px" y="0px"
	 viewBox="0 0 3710 3710" style="enable-background:new 0 0 3710 3710;" xml:space="preserve">
<g id="Background">
	<g>
		<g>
			<rect style="fill:#FFFFFF;" width="3710" height="3710"/>
		</g>
	</g>
</g>
<g id="Illustration">
	<g>
		<linearGradient id="SVGID_1_" gradientUnits="userSpaceOnUse" x1="3509.7969" y1="3688.7327" x2="1536.8369" y2="1588.4856">
			<stop  offset="0" style="stop-color:#B37CFF"/>
			<stop  offset="1" style="stop-color:#F895E7"/>
		</linearGradient>
		<path style="opacity:0.3;fill:url(#SVGID_1_);" d="M2917.417,2846.122c-72.833,75.075-138.002,119.206-187.898,152.522
			c-486.622,324.922-1042.885,231.272-1214.867,199.262c-277.473-51.644-511.698-88.076-712.939-269.889
			c-457.281-413.135-435.04-1274.967-85.621-1808.834c41.43-63.301,390.32-580.464,947.787-653.337
			c13.635-1.782,23.808-2.797,32.719-3.741c86.239-9.131,620.643-57.321,1056.397,307.753
			c62.376,52.258,162.757,146.52,255.843,290.283C3349.201,1585.807,3350.279,2399.946,2917.417,2846.122z"/>
		<g>
			
				<linearGradient id="SVGID_00000163765803359626835130000002008311492253495480_" gradientUnits="userSpaceOnUse" x1="1793.1544" y1="1857.2964" x2="1235.943" y2="584.8569">
				<stop  offset="0" style="stop-color:#53D8FF"/>
				<stop  offset="1" style="stop-color:#3840F7"/>
			</linearGradient>
			<path style="fill:url(#SVGID_00000163765803359626835130000002008311492253495480_);" d="M3212.256,2043.797
				c-30.63,697.721-665.986,1236.533-1419.107,1203.471S454.334,2621.79,484.964,1924.069S1150.949,687.536,1904.07,720.598
				S3242.886,1346.077,3212.256,2043.797z"/>
			
				<linearGradient id="SVGID_00000108988636623493912030000008871313915089044412_" gradientUnits="userSpaceOnUse" x1="1822.7653" y1="2938.2832" x2="1044.2657" y2="975.6813">
				<stop  offset="0" style="stop-color:#53D8FF"/>
				<stop  offset="1" style="stop-color:#3840F7"/>
			</linearGradient>
			<path style="fill:url(#SVGID_00000108988636623493912030000008871313915089044412_);" d="M818.912,1146.144
				c-29.961,48.099-53.062,102.246-48.724,158.747c5.023,65.422,38.135,126.687,39.833,192.279
				c2.879,111.241-82.994,204.355-109.781,312.361c-29.941,120.722,82.949,258.273,127.926,325.654
				c44.977,67.381,25.648-54.672,52.922-102.265s86.084,200.263,177.947,254.661c49.287,29.186,107.111,48.615,142.559,93.608
				c51.701,65.624,37.376,159.005,29.614,242.187c-7.762,83.182,3.865,184.556,78.779,221.534
				c44.11,21.773,100.179,14.405,139.984,43.306c69.905,50.757,36.512,161.413,64.212,243.24
				c30.124,88.985,89.854,90.156,182.268,109.022s-11.644-184.163,31.649-255.121c22.755-37.296,57.494-66.976,75.44-106.809
				c24.889-55.243,17.879-129.052,66.163-165.657c36.193-27.439,86.555-20.016,131.972-20.416
				c45.417-0.4,100.654-20.109,105.807-65.234c4.572-40.039-35.511-71.966-74.727-81.244c-39.216-9.278-81.004-4.854-119.519-16.713
				c-110.163-33.92-161.546-188.078-276.588-195.291c-98.336-6.166-180.701,104.213-277.325,84.935
				c-53.867-10.748-90.738-58.454-130.723-96.116c-51.365-48.381-115.113-84.691-155.894-142.275
				c-40.781-57.584-47.719-149.628,10.296-189.794c43.095-29.837,104.328-17.725,146.903,12.85s71.573,75.941,102.84,118.011
				c9.657,12.993,20.586,26.458,36.035,31.294c41.574,13.014,71.911-45.476,61.963-87.889
				c-9.948-42.413-39.909-79.717-41.316-123.258c-2.48-76.737,80.156-125.428,152.65-150.714
				c72.494-25.286,157.938-55.432,179.252-129.191c7.529-26.054,5.553-54.723,17.043-79.289
				c38.077-81.412,239.003-122.055,190.975-169.262c-48.028-47.208-200.466-57.469-230.151-152.542
				c-10.627-34.036-21.569-79.028-57.074-82.32c-57.832-5.362-90.831,66.223-139.34,78.51
				c-23.028,5.833-25.244,44.948-24.346,93.046c0.652,34.912-27.117,63.745-62.029,64.405c-34.912,0.66-63.755-27.101-64.42-62.013
				c-0.247-12.959,2.022-26.057,7.352-39.12c9.339-22.892,27.076-41.198,44.958-58.273c74.609-71.24,297.24-149.513,250.62-179.837
				c-46.62-30.325-270.37-114.011-303.745-67.827c-33.375,46.184,21.825,7.078,35.288,61.851
				c13.463,54.773-165.519,47.429-248.278,71.144c-13.664,3.916-28.82,7.729-41.613,1.535c-14.3-6.924-20.321-23.569-28.081-37.433
				c-41.563-74.255-179.807-26.057-179.807-26.057S845.682,1103.168,818.912,1146.144z"/>
			
				<linearGradient id="SVGID_00000067237384645907172150000005658749859488747694_" gradientUnits="userSpaceOnUse" x1="2536.6895" y1="2646.0615" x2="1765.0566" y2="700.7703">
				<stop  offset="0" style="stop-color:#53D8FF"/>
				<stop  offset="1" style="stop-color:#3840F7"/>
			</linearGradient>
			<path style="fill:url(#SVGID_00000067237384645907172150000005658749859488747694_);" d="M1444.196,809.172
				c-20.094,37.459,39.663,36.852,45.607,78.942c53.794,5.862,75.887-78.951,129.086-88.85c30.023-5.586,59.134,15.925,75.449,41.74
				c16.315,25.815,23.925,56.126,37.753,83.355c30.984,61.008,94.96,103.945,163.159,109.503c14.838,1.209,31.188,0.26,42.357-9.582
				c32.423-28.571-13.963-82.245-1.912-123.746c13.77-47.424,82.152-40.229,128.37-57.622
				c12.748-4.797,110.795-30.959,112.372-44.488c2.796-23.985-42.69-39.254-93.575-52.339
				c-86.211-22.169-237.903-21.247-312.05-14.539C1672.169,740.471,1507.818,733.26,1444.196,809.172L1444.196,809.172z"/>
			<g>
				
					<linearGradient id="SVGID_00000083799895865854318080000003684159952224849819_" gradientUnits="userSpaceOnUse" x1="2397.8284" y1="3180.3425" x2="3366.0952" y2="519.7908">
					<stop  offset="0" style="stop-color:#53D8FF"/>
					<stop  offset="1" style="stop-color:#3840F7"/>
				</linearGradient>
				<path style="fill:url(#SVGID_00000083799895865854318080000003684159952224849819_);" d="M3089.26,2420.178
					c22.353-139.927,20.493-283.688-5.474-422.988c-6.927-37.161-23.142-81.461-60.562-86.809
					c-43.283-6.187-96.271,43.534-123.367,9.217c-11.961-15.147-7.188-37.202-0.413-55.273
					c17.869-47.662,45.842-91.506,81.534-127.797c22.173-22.545,47.543-42.529,64.616-69.145
					c36.517-56.925,10.884-140.11-40.801-183.729c-51.684-43.619-118.359,34.603-172.689,3.552s-56.021-106.379-66.231-168.117
					c-7.563-45.731-41.259-169.629-78.479-109.289c-37.221,60.34,49.649,300.539,147.419,415.678
					c11.793,13.889,24.815,29.443,23.819,47.635c-2.379,43.443-65.684,41.51-108.273,50.405
					c-52.718,11.011-133.519-17.223-88.927,74.64c23.518,48.449,135.854,114.761,105.669,147.184s-122.982,126.339-166.524,202.29
					c-43.542,75.951-64.644,170.53-31.809,251.686s131.566,137.196,212.162,103.008c37.722-16.002,78.837-49.271,113.901-28.07
					c31.754,19.198,27.068,65.281,25.497,102.354c-1.571,37.072,19.8,86.286,55.869,77.576
					c11.869-2.865,21.204-11.865,29.218-21.075C3056.158,2574.788,3077.064,2496.518,3089.26,2420.178z"/>
			</g>
			
				<linearGradient id="SVGID_00000135653641736700547630000013779691173976497029_" gradientUnits="userSpaceOnUse" x1="706.6209" y1="1894.8092" x2="2848.7612" y2="1894.8092">
				<stop  offset="0" style="stop-color:#B37CFF"/>
				<stop  offset="1" style="stop-color:#F895E7"/>
			</linearGradient>
			
				<ellipse style="opacity:0.26;fill:url(#SVGID_00000135653641736700547630000013779691173976497029_);" cx="1777.691" cy="1894.809" rx="1071.07" ry="1011.82"/>
			<g style="opacity:0.68;">
				<path style="fill:#FFFFFF;" d="M2229.215,2005.638c-0.325,222.941-15.55,446.333-54.628,666.116
					c-9.896,54.902-21.376,109.538-35.063,163.653c-13.727,54.092-29.584,107.712-49.005,160.127
					c-9.74,26.191-20.385,52.072-32.366,77.368c-11.992,25.28-25.302,50.013-40.766,73.465
					c-15.523,23.345-33.13,45.699-54.816,64.057c-10.839,9.12-22.732,17.199-35.792,23.115c-13.034,5.875-27.26,9.592-41.696,9.862
					c-14.42,0.427-28.856-2.418-42.146-7.777c-13.339-5.312-25.518-13.024-36.616-21.841
					c-22.199-17.781-40.193-39.886-55.997-63.047c-15.766-23.265-29.232-47.919-41.422-73.107
					c-12.139-25.222-22.935-51.044-32.774-77.197c-19.667-52.325-35.682-105.903-49.533-159.963
					c-13.826-54.077-25.422-108.69-35.403-163.574c-19.918-109.791-33.472-220.639-42.585-331.792
					c-9.049-111.17-13.537-222.692-14.004-334.226c-0.226-55.761,1.143-111.516,3.083-167.238
					c2.019-55.721,5.021-111.406,9.054-167.018c8.111-111.209,20.294-222.177,38.471-332.232
					c9.12-55.016,19.768-109.798,32.586-164.096c12.851-54.278,27.797-108.125,46.351-160.801
					c9.326-26.312,19.524-52.343,31.157-77.758c11.616-25.41,24.617-50.262,39.898-73.751
					c15.314-23.386,32.919-45.699,54.821-63.546c10.949-8.846,23.007-16.54,36.21-21.754c13.148-5.279,27.408-7.965,41.604-7.435
					c14.204,0.401,28.201,3.973,41.125,9.678c12.942,5.738,24.842,13.538,35.769,22.385c21.859,17.805,39.964,39.588,56.024,62.468
					c16.007,22.979,29.965,47.289,42.568,72.222c12.634,24.929,23.886,50.518,34.277,76.43
					c20.69,51.873,37.762,105.094,52.624,158.863c14.809,53.796,27.34,108.192,38.176,162.906
					C2211.262,1559.25,2228.646,1782.669,2229.215,2005.638z M2216.43,2005.638c0.152-111.181-4.127-222.388-13.419-333.182
					c-9.201-110.785-23.136-221.243-43.807-330.478c-10.336-54.608-22.361-108.906-36.657-162.603
					c-14.346-53.67-30.895-106.792-51.031-158.543c-10.112-25.849-21.081-51.373-33.409-76.22
					c-12.299-24.851-25.937-49.064-41.569-71.915c-15.68-22.753-33.366-44.368-54.605-61.965
					c-10.618-8.745-22.146-16.433-34.633-22.094c-12.472-5.598-25.915-9.245-39.585-9.607c-13.658-0.443-27.311,2.283-39.948,7.467
					c-12.683,5.131-24.318,12.682-34.92,21.397c-21.211,17.578-38.38,39.67-53.302,62.895
					c-14.895,23.325-27.575,48.056-38.885,73.365c-11.329,25.314-21.244,51.265-30.295,77.504
					c-18.004,52.531-32.434,106.267-44.777,160.439c-12.31,54.193-22.458,108.876-31.085,163.789
					c-17.191,109.853-28.403,220.607-35.552,331.569c-7.193,110.977-9.861,222.211-9.681,333.402
					c-0.198,111.177,3.614,222.38,11.974,333.25c8.424,110.849,21.277,221.419,40.467,330.904
					c9.615,54.732,20.84,109.185,34.278,163.081c13.462,53.876,29.074,107.25,48.284,159.297
					c9.61,26.014,20.162,51.676,32.022,76.698c11.908,24.985,25.066,49.404,40.413,72.342
					c15.372,22.834,32.865,44.512,54.113,61.729c10.62,8.541,22.189,15.942,34.719,21.014c12.49,5.091,25.914,7.901,39.355,7.454
					c13.443-0.333,26.687-3.87,38.961-9.488c12.294-5.656,23.613-13.427,34-22.277c20.785-17.806,37.904-39.751,53.005-62.783
					c15.052-23.137,28.051-47.636,39.76-72.721c11.7-25.1,22.097-50.826,31.603-76.878c18.954-52.141,34.397-105.56,47.723-159.469
					c13.288-53.932,24.381-108.41,33.904-163.157c19.038-109.512,31.738-220.094,40.165-330.945
					C2212.522,2228.05,2216.456,2116.837,2216.43,2005.638z"/>
				<path style="fill:#FFFFFF;" d="M2791.584,2005.638c-0.264,71.737-4.793,143.485-14.369,214.595
					c-9.595,71.097-23.837,141.583-43.073,210.714c-38.836,138.071-97.507,270.974-177.366,390.281
					c-39.931,59.59-85.197,115.678-135.798,166.552c-50.574,50.869-106.553,96.466-167.278,134.713
					c-60.733,38.171-126.323,68.822-195.04,89.629c-68.741,20.645-140.473,31.349-212.243,31.334
					c-71.77,0.064-143.516-10.588-212.287-31.189c-68.745-20.762-134.376-51.375-195.157-89.518
					c-60.774-38.216-116.816-83.781-167.454-134.634c-50.666-50.855-96.001-106.935-136.003-166.525
					c-79.984-119.32-138.751-252.268-177.727-390.39c-19.306-69.155-33.706-139.665-43.289-210.816
					c-9.541-71.167-14.031-142.965-14.253-214.744c0.257-71.781,4.782-143.574,14.356-214.731
					c9.62-71.141,24.063-141.635,43.403-210.77c39.052-138.08,97.889-270.959,177.915-390.182
					c40.014-59.547,85.353-115.578,136.016-166.382c50.638-50.791,106.648-96.325,167.414-134.448
					c60.766-38.066,126.386-68.503,195.038-89.26c68.674-20.622,140.331-31.313,212.028-31.298
					c71.697,0.031,143.34,10.769,211.987,31.432c68.626,20.799,134.203,51.283,194.92,89.381
					c60.715,38.157,116.663,83.719,167.236,134.528c50.597,50.822,95.869,106.861,135.812,166.408
					c79.898,119.212,138.644,252.045,177.552,390.073c19.271,69.11,33.548,139.582,43.179,210.668
					C2786.714,1862.157,2791.282,1933.901,2791.584,2005.638z M2776.926,2005.638c-0.046-71.106-4.317-142.24-13.594-212.756
					c-9.295-70.5-23.198-140.41-42.054-208.985c-37.716-137.041-94.648-269.315-172.983-388.21
					c-39.149-59.386-83.615-115.342-133.415-166.171c-49.802-50.772-104.874-96.573-164.961-134.744
					c-60.111-38.046-125.019-68.724-193.112-89.5c-68.119-20.588-139.209-31.326-210.39-31.439
					c-71.179,0.16-142.256,10.944-210.349,31.573c-68.067,20.819-132.931,51.544-192.991,89.621
					c-60.038,38.205-115.046,84.035-164.785,134.824c-49.734,50.847-94.13,106.812-133.209,166.198
					c-78.211,118.884-135.048,251.111-172.62,388.101c-37.439,137.151-55.576,279.371-55.55,421.489
					c0.041,142.117,18.25,284.321,55.766,421.428c37.646,136.946,94.557,269.106,172.808,387.893
					c39.09,59.344,83.493,115.26,133.222,166.055c49.739,50.729,104.715,96.525,164.745,134.637
					c60.047,38.001,124.9,68.552,192.873,89.365c67.997,20.65,138.984,31.472,210.09,31.682
					c71.107-0.158,142.109-10.931,210.135-31.537c68.002-20.771,132.895-51.281,192.991-89.253
					c60.078-38.082,115.118-83.847,164.922-134.561c49.793-50.775,94.266-106.685,133.427-166.027
					c78.376-118.8,135.381-251.004,173.169-388.003c18.89-68.554,32.828-138.449,42.16-208.939
					C2772.534,2147.874,2776.844,2076.744,2776.926,2005.638z"/>
				<path style="fill:#FFFFFF;" d="M740.995,1515.722l284.487-1.774l284.486-1.014l568.972-0.814l568.973,0.896l284.486,1.103
					l284.486,1.921c0.358,0.002,0.645,0.294,0.643,0.651c-0.003,0.354-0.29,0.64-0.643,0.642l-284.486,1.921l-284.486,1.103
					l-568.973,0.896l-568.972-0.814l-284.486-1.014l-284.487-1.774c-0.531-0.003-0.96-0.437-0.957-0.97
					C740.041,1516.152,740.468,1515.725,740.995,1515.722z"/>
				<path style="fill:#FFFFFF;" d="M1071.033,1039.232l201.976-1.78l201.978-1.009c67.324-0.43,134.65-0.384,201.976-0.516
					l201.976-0.298l403.954,0.896l201.976,1.102l201.976,1.922c0.358,0.003,0.645,0.296,0.642,0.653
					c-0.003,0.353-0.289,0.638-0.642,0.641l-201.976,1.922l-201.976,1.102l-403.954,0.896l-201.976-0.298
					c-67.326-0.133-134.652-0.086-201.976-0.516l-201.978-1.009l-201.976-1.781c-0.533-0.005-0.96-0.44-0.955-0.972
					C1070.083,1039.661,1070.508,1039.237,1071.033,1039.232z"/>
				<path style="fill:#FFFFFF;" d="M642.133,1992.212l309.202-1.774l309.202-1.015l618.402-0.813l618.404,0.896l309.202,1.103
					l309.202,1.921c0.356,0.002,0.645,0.294,0.642,0.651c-0.002,0.355-0.289,0.641-0.642,0.643l-309.202,1.921l-309.202,1.103
					l-618.404,0.896l-618.402-0.814l-309.202-1.015l-309.202-1.774c-0.533-0.003-0.962-0.437-0.958-0.969
					C641.178,1992.642,641.606,1992.215,642.133,1992.212z"/>
				<path style="fill:#FFFFFF;" d="M740.995,2468.702l284.487-1.774l284.486-1.015l568.972-0.813l568.973,0.896l284.486,1.103
					l284.486,1.921c0.358,0.002,0.645,0.294,0.643,0.652c-0.003,0.354-0.29,0.64-0.643,0.643l-284.486,1.921l-284.486,1.103
					l-568.973,0.896l-568.972-0.814l-284.486-1.015l-284.487-1.774c-0.531-0.003-0.96-0.438-0.957-0.97
					C740.041,2469.132,740.468,2468.705,740.995,2468.702z"/>
				<path style="fill:#FFFFFF;" d="M2727.553,2949.533H1111.741c-1.866,0-3.378-1.512-3.378-3.378c0-1.865,1.513-3.378,3.378-3.378
					h1615.813c1.866,0,3.378,1.513,3.378,3.378C2730.932,2948.021,2729.419,2949.533,2727.553,2949.533z"/>
			</g>
		</g>
		<g>
			
				<linearGradient id="SVGID_00000112625539641799331340000018299396217126156709_" gradientUnits="userSpaceOnUse" x1="1476.7618" y1="-1197.6493" x2="1214.1909" y2="2239.6252" gradientTransform="matrix(0.8914 0.4532 -0.4455 0.8762 720.4153 315.5381)">
				<stop  offset="0" style="stop-color:#FDF53F"/>
				<stop  offset="0.078" style="stop-color:#F5CE47"/>
				<stop  offset="0.1691" style="stop-color:#EEA74F"/>
				<stop  offset="0.2671" style="stop-color:#E78656"/>
				<stop  offset="0.3717" style="stop-color:#E26B5B"/>
				<stop  offset="0.4851" style="stop-color:#DE5660"/>
				<stop  offset="0.6118" style="stop-color:#DB4763"/>
				<stop  offset="0.7627" style="stop-color:#DA3F64"/>
				<stop  offset="1" style="stop-color:#D93C65"/>
			</linearGradient>
			<path style="fill:url(#SVGID_00000112625539641799331340000018299396217126156709_);" d="M578.382,2336.021
				c-66.783-25.345-95.264-268.916-72.293-357.947c19.902-77.135,120.482-193.324,162.618-257.419
				c34.449-52.402,78.116-98.311,135.405-127.29c-16.549,8.371-15.634,37.132,1.418,44.43
				c73.919-41.308,140.796-79.927,202.009-140.698c69.129-68.328,115.611-170.193,214.259-201.725
				c59.808-19.117,122.194-33.314,184.898-30.053c62.428,3.246,126.324,23.532,186.093,5.214
				c-21.792,6.679-46.996,35.165-68.185,46.65c-19.578,10.608-58.421,13.088-68.97,34.709c25.961-1.219,45.908,8.554,65.618,25.661
				c17.239,14.962,34.019,32.269,56.087,38.105c-3.433-0.908-44.932,26.267-53.3,29.277c-22.583,8.124-42.062,17.994-61.182,32.77
				c-13.41,10.363-26.298,21.939-34.902,36.54c-13.4,22.741-14.891,52.079-3.866,76.062c11.025,23.983,34.265,41.952,60.25,46.587
				c18.108,3.23,36.725,0.309,54.707-3.563c18.764-4.041,37.304-9.119,55.508-15.204c-11.047,15.379-30.099,40.224-30.3,59.819
				c-0.741,72.096,112.943,35.666,149.111,33.687c56.305-3.08,135.945-4.143,185.395,25.625
				c-22.326,11.745-39.201,33.397-45.138,57.915c-1.322,5.46-2.051,11.519,0.65,16.445c2.264,4.129,6.534,6.706,10.705,8.891
				c39.112,20.498,87.246,22.925,128.221,6.464c-11.891,10.981-22.78,23.047-32.487,35.999c-1.913,2.552-3.88,5.557-3.249,8.684
				c0.709,3.516,4.341,5.534,7.64,6.941c31.089,13.268,67.408,13.766,98.849,1.355c-6.654,60.115,9.365,95.943,58.408,129.618
				c2.928,2.01,6.185,4.822,5.665,8.336c-0.264,1.784-1.489,3.263-2.747,4.555c-10.497,10.791-117.604,34.449-156.347,38.611
				c-121.276,13.028-623.894,55.24-754.064,49.128C1099.251,2104.773,645.045,2361.321,578.382,2336.021z"/>
			
				<linearGradient id="SVGID_00000075855397150232947930000007303741356515793040_" gradientUnits="userSpaceOnUse" x1="2186.3994" y1="-647.5106" x2="1652.646" y2="1528.0352">
				<stop  offset="0" style="stop-color:#FFC444"/>
				<stop  offset="0.3138" style="stop-color:#FBA94A"/>
				<stop  offset="0.9964" style="stop-color:#F36F56"/>
			</linearGradient>
			<path style="fill:url(#SVGID_00000075855397150232947930000007303741356515793040_);" d="M1722.747,1442.058
				c-125.524-27.725-122.367,117.545-119.324,118.935C1666.912,1589.996,1678.003,1505.895,1722.747,1442.058z"/>
		</g>
		<g>
			
				<linearGradient id="SVGID_00000039135867892038683880000009558569804291482001_" gradientUnits="userSpaceOnUse" x1="-5108.498" y1="826.3002" x2="-5912.6074" y2="3529.7659" gradientTransform="matrix(-0.7695 0.0544 0.1144 0.8477 -1891.2917 536.6193)">
				<stop  offset="0" style="stop-color:#FDF53F"/>
				<stop  offset="0.078" style="stop-color:#F5CE47"/>
				<stop  offset="0.1691" style="stop-color:#EEA74F"/>
				<stop  offset="0.2671" style="stop-color:#E78656"/>
				<stop  offset="0.3717" style="stop-color:#E26B5B"/>
				<stop  offset="0.4851" style="stop-color:#DE5660"/>
				<stop  offset="0.6118" style="stop-color:#DB4763"/>
				<stop  offset="0.7627" style="stop-color:#DA3F64"/>
				<stop  offset="1" style="stop-color:#D93C65"/>
			</linearGradient>
			<path style="fill:url(#SVGID_00000039135867892038683880000009558569804291482001_);" d="M2820.535,1986.077
				c8.742-42.101,18.958-96.692,56.389-130.879c-8.99,27.067,0.973,56.021,21.662,78.031c25.837,27.487,63.835,35.5,97.74,55.828
				c14.593,8.749,28.136,18.699,38.418,30.544c26.371,30.38,28.726,70.668,17.23,107.149s-35.468,70.154-59.173,103.309
				c65.97-39.041,70.428-4.212,139.739-39.364c-49.873,24.981-36.835,101.487-62.482,142.649
				c-43.342,69.56,47.191,102.77-29.04,151.867c-95.891,61.759-272.199-5.343-376.702-11.579
				c-206.856-12.345-342.928-193.958-494.695-310.665c-39.017-30.004-74.964-77.334-60.978-124.524
				c8.249-27.833,31.851-47.764,51.279-69.333c41.349-45.906,66.951-105.741,71.604-167.347
				c35.781,9.704,69.652,26.398,99.144,48.863c6.542-17.522,9.123-36.51,7.495-55.143c33.118,18.672,61.267,46.065,80.835,78.662
				c15.617,26.017,30.201,58.725,60.02,64.312c93.909,17.595,34.349-117.669-3.45-142.245
				c91.151,21.681,163.094,78.451,187.202,147.72c6.864,19.722,10.094,40.364,19.522,59.37s26.483,36.873,52.185,43.519
				C2790.695,2061.358,2813.701,2018.987,2820.535,1986.077z"/>
		</g>
		<g>
			
				<linearGradient id="SVGID_00000062906832709233064740000013526584154056356993_" gradientUnits="userSpaceOnUse" x1="1258.9508" y1="2333.9185" x2="1414.7338" y2="1609.292">
				<stop  offset="0" style="stop-color:#2B3582"/>
				<stop  offset="1" style="stop-color:#150E42"/>
			</linearGradient>
			<path style="fill:url(#SVGID_00000062906832709233064740000013526584154056356993_);" d="M1431.692,1162.917
				c0,0,4.633,11.341,11.684,31.491c3.492,10.094,7.634,22.391,11.97,36.637c4.264,14.265,8.996,30.404,13.212,48.288
				c4.227,17.875,8.37,37.391,11.205,58.391c1.284,10.52,2.487,21.362,2.951,32.569l0.247,4.205l0.021,4.365
				c-0.005,2.774-0.009,5.563-0.014,8.364c-0.443,5.809-0.528,11.909-1.431,17.682c-2.759,23.529-9.607,46.926-20.238,69.76
				c-10.711,22.483-26.298,41.959-33.349,62.965l-1.323,3.918l-0.332,0.978c0.26-1.004,0.037-0.118,0.078-0.27l-0.06,0.279
				l-0.122,0.557l-0.484,2.229l-1.939,8.914c-1.618,6.101-1.719,11.463-2.432,17.052c-0.797,5.405-0.802,11.373-1.016,17.165
				c-0.32,5.778-0.166,11.649-0.002,17.495c0.539,23.382,2.902,46.695,4.281,69.825c0.267,5.842,0.645,11.532,0.811,17.365
				c0.131,5.602,0.263,11.15,0.394,16.639c0.26,10.978,0.514,21.718,0.763,32.173c0.496,20.91,0.966,40.68,1.397,58.928
				c0.867,36.497,1.588,66.912,2.093,88.202c0.325,21.403,0.509,33.633,0.509,33.633l-33.045-0.147c0,0,0.256-12.105,0.701-33.287
				c0.265-21.295,0.643-51.716,1.095-88.222c0.226-18.253,0.473-38.027,0.733-58.942c0.129-10.457,0.263-21.2,0.399-32.18
				c0.067-5.49,0.136-11.04,0.205-16.643c0.044-5.371-0.124-10.983-0.177-16.543c-0.512-22.45-2.068-46.175-1.759-70.711
				c0.053-6.132,0.118-12.287,0.678-18.547c0.461-6.247,0.673-12.396,1.839-18.974c1.023-6.398,1.703-13.22,3.439-18.847
				l2.259-8.837l0.565-2.21l0.438-1.649l0.436-1.17l1.752-4.674c4.774-12.417,11.472-23.406,18.094-33.718
				c3.273-5.063,6.539-10.115,9.796-15.153l4.46-7.271l4.324-7.874c10.31-20.232,17.776-42.366,21.059-64.083
				c1.065-5.477,1.272-10.726,1.918-16.063c0.106-2.8,0.212-5.586,0.316-8.358l0.129-3.932l-0.094-4.045
				c-0.053-10.757-0.839-21.313-1.715-31.593c-2.021-20.558-5.398-39.915-8.932-57.695c-3.52-17.796-7.627-33.949-11.343-48.242
				c-3.79-14.279-7.459-26.635-10.564-36.785c-6.293-20.294-10.46-31.654-10.46-31.654L1431.692,1162.917z"/>
			
				<linearGradient id="SVGID_00000033348567901714257120000001644355281518547135_" gradientUnits="userSpaceOnUse" x1="1175.8229" y1="2316.0471" x2="1331.606" y2="1591.4208">
				<stop  offset="0" style="stop-color:#2B3582"/>
				<stop  offset="1" style="stop-color:#150E42"/>
			</linearGradient>
			<path style="fill:url(#SVGID_00000033348567901714257120000001644355281518547135_);" d="M1408.884,1544.489
				c0,0-0.772-1.452-2.22-4.173c-1.408-2.698-3.423-6.644-5.878-11.706c-4.903-10.126-11.64-24.686-18.597-42.65
				c-6.927-17.96-14.217-39.309-19.365-63.022c-2.549-11.853-4.539-24.304-5.348-37.15c-0.768-12.827-0.482-26.105,2.229-39.193
				c0.83-3.247,1.374-6.537,2.524-9.714l2.943-9.073l2.916-8.958c0.867-2.954,1.422-5.824,2.155-8.728
				c1.581-5.709,2.284-11.741,3.275-17.59c0.733-5.89,1.235-11.763,1.533-17.541c0.076-5.79,0.38-11.497-0.025-17.078
				c-0.145-2.79-0.187-5.56-0.41-8.284c-0.283-2.721-0.56-5.409-0.834-8.06c-0.422-5.325-1.554-10.408-2.254-15.387
				c-1.042-4.912-1.969-9.692-3.142-14.207c-2.367-9.022-4.875-17.234-7.694-24.271c-1.293-3.572-2.722-6.814-4.082-9.796
				c-1.27-3.032-2.697-5.67-3.935-8.084c-1.187-2.451-2.462-4.492-3.541-6.29c-1.06-1.815-1.991-3.336-2.858-4.469
				c-1.657-2.339-2.542-3.586-2.542-3.586l3.748-3.044c0,0,0.989,1.296,2.847,3.726c0.975,1.194,2.005,2.754,3.181,4.609
				c1.196,1.844,2.609,3.95,3.923,6.436c1.374,2.458,2.953,5.159,4.37,8.233c1.514,3.033,3.105,6.335,4.564,9.961
				c3.158,7.162,6.035,15.51,8.798,24.729c1.369,4.613,2.499,9.503,3.748,14.543c0.908,5.109,2.252,10.334,2.886,15.828
				c0.378,2.739,0.763,5.516,1.153,8.327c0.33,2.818,0.479,5.692,0.731,8.589c0.615,5.792,0.519,11.748,0.643,17.803
				c-0.24,12.138-1.13,24.587-3.813,37.293c-0.675,3.152-1.238,6.44-2.031,9.521c-0.867,3.01-1.733,6.029-2.605,9.055l-2.584,9.016
				c-0.927,2.8-1.289,5.799-1.939,8.692c-2.021,11.775-1.89,24.01-0.754,35.95c1.171,11.962,3.455,23.692,6.279,34.908
				c5.696,22.45,13.448,42.856,20.761,60.005c7.339,17.16,14.374,31.072,19.445,40.679c2.538,4.804,4.608,8.528,6.03,11.035
				c1.42,2.462,2.178,3.775,2.178,3.775L1408.884,1544.489z"/>
			
				<linearGradient id="SVGID_00000110471966279310254140000003037166393378242194_" gradientUnits="userSpaceOnUse" x1="-3235.0649" y1="1989.7889" x2="-3132.1631" y2="1511.1403" gradientTransform="matrix(-1 0 0 1 -1565.9885 0)">
				<stop  offset="0" style="stop-color:#2B3582"/>
				<stop  offset="1" style="stop-color:#150E42"/>
			</linearGradient>
			<path style="fill:url(#SVGID_00000110471966279310254140000003037166393378242194_);" d="M1476.226,1356.104
				c0,0,0.934,0.073,2.688,0.21c1.708,0.116,4.184,0.262,7.335,0.369c6.302,0.183,15.317,0.345,26.261-0.75
				c5.461-0.566,11.428-1.434,17.601-3.167c6.097-1.693,12.661-4.423,17.375-8.832c2.305-2.201,4.001-4.742,5.006-7.377
				c0.906-2.825,1.095-4.887,1.554-7.195c0.821-4.552,1.655-9.177,2.487-13.801c0.888-4.611,1.489-9.293,2.238-13.862
				c0.71-4.577,1.408-9.082,2.084-13.441c0.645-4.361,1.028-8.601,1.519-12.607c0.459-4.008,0.894-7.798,1.295-11.296
				c0.523-3.479,0.413-6.754,0.565-9.617c0.092-2.871,0.175-5.373,0.242-7.434c0.129-4.118,0.205-6.471,0.205-6.471l-7.229,0.089
				c0,0-0.184,2.302-0.505,6.33c-0.159,2.012-0.355,4.455-0.576,7.258c-0.281,2.805-0.307,5.95-0.991,9.417
				c-0.56,3.459-1.164,7.206-1.805,11.169c-0.673,3.961-1.242,8.143-2.086,12.457c-0.874,4.312-1.775,8.768-2.69,13.295
				c-0.954,4.529-1.756,9.118-2.863,13.726c-1.046,4.604-2.095,9.209-3.126,13.742c-0.523,2.228-0.998,4.702-1.602,6.26
				c-0.763,1.701-1.883,3.23-3.37,4.569c-3.029,2.649-7.54,4.528-12.394,5.743c-4.841,1.247-9.932,1.901-14.697,2.286
				c-9.573,0.757-17.889,0.452-23.596,0.158c-2.865-0.158-5.104-0.339-6.604-0.474c-1.45-0.144-2.224-0.221-2.224-0.221
				L1476.226,1356.104z"/>
			
				<linearGradient id="SVGID_00000112592185511414865840000011665102567556539310_" gradientUnits="userSpaceOnUse" x1="-3107.3191" y1="2235.6152" x2="-2951.5361" y2="1510.9889" gradientTransform="matrix(-1 0 0 1 -1627.3354 0)">
				<stop  offset="0" style="stop-color:#2B3582"/>
				<stop  offset="1" style="stop-color:#150E42"/>
			</linearGradient>
			<path style="fill:url(#SVGID_00000112592185511414865840000011665102567556539310_);" d="M1225.433,1378.416
				c0,0,0.424,3.146,1.533,8.502c1.125,5.358,2.907,12.988,5.979,21.927c1.547,4.465,3.423,9.255,5.822,14.185
				c2.423,4.912,5.29,10.025,9.174,14.836c3.868,4.769,8.713,9.438,15.056,12.36c3.119,1.494,6.585,2.501,10.124,2.838
				c1.86,0.214,3.428,0.273,4.931,0.323l4.642,0.18c24.68,0.898,49.355,1.977,67.053,4.94c8.761,1.419,15.914,3.516,19.102,5.504
				c1.634,0.976,1.867,1.612,1.731,1.465c-0.062-0.101-0.201-0.444-0.127-0.403l14.061-1.696c-0.083,0.102-0.085-1.939-1.57-4.573
				c-1.452-2.719-4.324-5.223-7.459-6.816c-6.336-3.262-14.429-4.814-23.995-5.96c-19.076-2.187-43.943-1.96-68.678-1.625
				l-4.626,0.054c-1.586,0.031-3.1,0.034-4.308-0.057c-2.6-0.103-5.152-0.698-7.57-1.711c-4.889-1.925-9.158-5.524-12.76-9.543
				c-3.621-4.036-6.528-8.618-9.024-13.101c-2.485-4.506-4.511-8.989-6.212-13.205c-3.393-8.447-5.514-15.807-6.874-20.968
				c-1.346-5.181-1.897-8.143-1.897-8.143L1225.433,1378.416z"/>
			
				<linearGradient id="SVGID_00000009575327518541753450000006092570430873687955_" gradientUnits="userSpaceOnUse" x1="1131.5078" y1="1078.9531" x2="1834.9055" y2="1078.9531">
				<stop  offset="0" style="stop-color:#2B3582"/>
				<stop  offset="1" style="stop-color:#150E42"/>
			</linearGradient>
			<path style="fill:url(#SVGID_00000009575327518541753450000006092570430873687955_);" d="M1736.65,1149.274
				c3.81,1.395,10.429-57.575,9.001-65.169c-5.554-29.522-26.536-51.429-52.284-65.474
				c-86.546-47.207-69.237-113.297-111.723-122.738c-42.486-9.441-39.339-88.119-107.002-56.648
				c-38.292,17.81-64.704,46.664-96.446,73.151c-34.458,28.754-68.74,17.154-111.205,18.069
				c-25.305,0.546-54.874,12.946-58.36,38.016c-2.241,16.114,7.379,32.196,4.842,48.266c-2.774,17.569-19.237,29.764-35.828,36.173
				c-10.591,4.092-22.753,7.405-28.662,17.101c-6.683,10.966-2.351,25.108,2.692,36.918c11.828,27.7,27.427,54.807,51.329,73.133
				c27.758,21.282,64.633,22.794,98.194,18.535c27.194-3.451,53.132-19.73,80.933-19.601c30.238,0.14,62.813,18.595,87.186,35.399
				c31.496,21.715,57.499,50.499,88.135,73.415c56.026,41.905,128.542,54.545,188.414,11.449
				c29.2-21.018,51.019-50.586,70.908-80.567c1.943-2.929,3.956-6.194,3.55-9.685c-0.362-3.113-2.574-5.654-4.733-7.925
				C1793.715,1178.073,1766.47,1160.189,1736.65,1149.274z"/>
			
				<linearGradient id="SVGID_00000172410675119763367270000013307808231759616670_" gradientUnits="userSpaceOnUse" x1="1136.6132" y1="1355.5095" x2="1314.2537" y2="1355.5095">
				<stop  offset="0" style="stop-color:#2B3582"/>
				<stop  offset="1" style="stop-color:#150E42"/>
			</linearGradient>
			<path style="fill:url(#SVGID_00000172410675119763367270000013307808231759616670_);" d="M1171.54,1355.428
				c0,0,39.536-55.468,66.09-45.437c26.554,10.031,25.374,7.048,47.207,22.112c21.833,15.064,44.256,23.915,16.522,32.766
				c-27.734,8.851,1.18,40.126-80.842,37.175C1138.495,1399.095,1106.041,1369,1171.54,1355.428z"/>
		</g>
		<g>
			<g>
				
					<linearGradient id="SVGID_00000065774662709714369440000006957316416580359575_" gradientUnits="userSpaceOnUse" x1="817.9389" y1="2787.3564" x2="1507.0865" y2="942.8719">
					<stop  offset="0" style="stop-color:#2B3582"/>
					<stop  offset="1" style="stop-color:#150E42"/>
				</linearGradient>
				<path style="fill:url(#SVGID_00000065774662709714369440000006957316416580359575_);" d="M1139.52,1747.054
					c0,0-0.447,0.967-1.288,2.781c-0.805,1.866-2.01,4.627-3.278,8.251c-1.341,3.597-2.674,8.066-4.008,13.212
					c-1.109,5.175-2.413,11.049-2.713,17.451c-0.32,6.358-0.307,13.327,1.501,20.132c1.747,6.768,4.605,13.595,9.545,19.218
					c5.468,6.982,11.168,13.161,16.398,21.488l3.99,5.959l3.407,6.259l3.409,6.299c1.152,2.097,1.911,4.391,2.881,6.583
					c3.96,8.756,6.636,18.043,8.81,27.217c0.846,4.634,1.782,9.234,2.51,13.795c0.408,4.584,0.811,9.112,1.208,13.566
					c0.472,4.463,0.161,8.813,0.272,13.098c0.005,2.14,0.009,4.257,0.014,6.349c-0.025,1.969-0.048,3.914-0.072,5.833
					c-0.127,7.844-0.247,15.26-0.355,22.105c-0.18,6.885,0.219,12.875,0.272,18.347c0.083,5.432,0.254,10.159,0.556,14.042
					c0.258,3.855,0.383,7.008,0.595,8.948c0.187,1.976,0.286,3.029,0.286,3.029l-18.779,1.956c0,0-0.083-1.221-0.237-3.51
					c-0.178-2.321-0.21-5.445-0.367-9.566c-0.198-4.091-0.237-9.059-0.164-14.753c0.101-5.65-0.104-12.216,0.27-19.014
					c0.307-6.84,0.638-14.249,0.989-22.087c0.083-2.001,0.166-4.03,0.251-6.084c0.048-1.932,0.097-3.889,0.148-5.866
					c0.002-3.945,0.433-8.029,0.101-12.094c-0.242-4.079-0.491-8.227-0.74-12.425c-0.551-4.145-1.288-8.31-1.918-12.536
					c-1.736-8.323-3.877-16.742-7.233-24.727c-0.821-2-1.42-4.099-2.42-6.024l-2.939-5.795l-2.921-5.788l-3.393-5.372
					c-4.048-7.119-10.105-14.237-14.996-20.869c-6.194-7.516-9.667-16.461-11.534-24.853c-1.941-8.485-1.708-16.571-1.132-23.809
					c0.572-7.287,2.181-13.69,3.571-19.334c1.613-5.579,3.202-10.368,4.757-14.216c1.487-3.874,2.877-6.836,3.826-8.869
					c1.019-2.039,1.563-3.127,1.563-3.127L1139.52,1747.054z"/>
				
					<linearGradient id="SVGID_00000017501442170090344110000008454721463944200889_" gradientUnits="userSpaceOnUse" x1="814.6243" y1="2786.1187" x2="1503.7725" y2="941.6326">
					<stop  offset="0" style="stop-color:#2B3582"/>
					<stop  offset="1" style="stop-color:#150E42"/>
				</linearGradient>
				<path style="fill:url(#SVGID_00000017501442170090344110000008454721463944200889_);" d="M1153.258,1854.585
					c0,0,0.449-0.114,1.296-0.327c1.039-0.276,1.381-0.353,2.784-0.822c2.575-0.877,6.424-2.467,10.675-4.914
					c4.156-2.45,8.916-5.896,11.749-10.025c0.71-1.019,1.236-2.049,1.623-3.07l0.233-0.76l0.134-0.385l0.018-0.048l0.009-0.024
					c-0.078,1.389-0.021,0.361-0.037,0.66l0.009-0.169l0.021-0.339c0.018-0.801,0.182-2.047,0.083-2.495
					c-0.092-0.45-0.127-0.895-0.138-1.401l-0.512-2.285c-0.378-1.559-0.91-3.216-1.464-4.881
					c-2.333-6.721-5.288-13.745-7.491-20.579c-1.106-3.425-2.063-6.8-2.773-10.07c-0.675-3.276-1.259-6.401-1.406-9.359
					c-0.339-2.919-0.127-5.659-0.083-8.04c0.27-2.39,0.588-4.463,0.89-6.143c0.943-3.298,1.48-5.182,1.48-5.182l3.753,1.109
					c0,0-0.267,1.739-0.731,4.783c-0.074,1.536-0.117,3.403-0.097,5.52c0.247,2.136,0.337,4.521,0.982,7.099
					c0.449,2.58,1.337,5.334,2.319,8.206c1.014,2.872,2.282,5.852,3.713,8.907c2.865,6.136,6.516,12.428,9.969,19.379
					c0.848,1.768,1.694,3.567,2.448,5.523l1.083,3.013c0.327,1.302,0.613,2.663,0.846,4.01c0.226,1.35,0.168,1.945,0.265,2.947
					l0.023,0.339l0.011,0.169l-0.046,0.803l-0.014,0.118l-0.127,0.942l-0.29,1.883c-0.507,2.439-1.337,4.706-2.347,6.712
					c-4.163,8.012-9.891,12.891-14.768,16.793c-4.983,3.79-9.476,6.363-12.864,8.038c-1.583,0.802-3.633,1.63-4.253,1.872
					c-0.811,0.318-1.245,0.488-1.245,0.488L1153.258,1854.585z"/>
			</g>
			
				<linearGradient id="SVGID_00000158027117418294627240000016203860484980305551_" gradientUnits="userSpaceOnUse" x1="771.7997" y1="2770.1172" x2="1460.9484" y2="925.6297">
				<stop  offset="0" style="stop-color:#2B3582"/>
				<stop  offset="1" style="stop-color:#150E42"/>
			</linearGradient>
			<path style="fill:url(#SVGID_00000158027117418294627240000016203860484980305551_);" d="M1048,1756.25
				c-14.105-8.577-20.078-24.239-9.568-38.064c9.823-12.921,67.043-43.831,81.197-52.423c12.014-7.293,29.491-4.303,41.956,2.462
				c22.849,12.402,35.079,27.065,65.386,28.241c16.847,0.654,42.13,13.865,40.009,18.298c1.455-3.041,24.852,34.626,6.835,44.935
				c-2.118,1.212-39.453,18.62-48.198,20.196c-25.797,4.647-12.514,23.686-25.382,32.497c-12.45,8.524-33.411,0.201-41.558-9.107
				c-11.844-13.532-19.274-25.48-38.867-32.027C1100.155,1764.691,1051.068,1758.116,1048,1756.25z"/>
		</g>
		
			<linearGradient id="SVGID_00000006708932619853939350000013296737391922860421_" gradientUnits="userSpaceOnUse" x1="-1971.61" y1="294.7408" x2="-1850.5576" y2="294.7408" gradientTransform="matrix(-0.8808 -0.4735 -0.4735 0.8808 539.343 351.4845)">
			<stop  offset="0" style="stop-color:#444B8C"/>
			<stop  offset="0.9964" style="stop-color:#26264F"/>
		</linearGradient>
		<path style="fill:url(#SVGID_00000006708932619853939350000013296737391922860421_);" d="M2045.751,1546.06
			c-36.226-4.68,2.033-59.216-5.821-77.658c0.401,28.669-59.236,70.021-0.699,83.236c-1.928,2.151-7.772,5.592-7.106,8.495
			c28.918-5.828,37.346,30.294,114.602-34.735c-26.671,2.798-49.003,15.457-66.075,22.312c45.075-22.095,16.054-46.46,56.061-74.409
			C2088.71,1489.832,2094.701,1552.385,2045.751,1546.06z"/>
		
			<linearGradient id="SVGID_00000143577214760065113580000001646775270153303445_" gradientUnits="userSpaceOnUse" x1="-2082.1677" y1="1438.4481" x2="-1792.7891" y2="1438.4481" gradientTransform="matrix(-1 0 0 1 406.6072 0)">
			<stop  offset="0" style="stop-color:#444B8C"/>
			<stop  offset="0.9964" style="stop-color:#26264F"/>
		</linearGradient>
		<path style="fill:url(#SVGID_00000143577214760065113580000001646775270153303445_);" d="M2339.64,1470.651
			c-17.438,6.78-123.847,10.089-140.244-3.034c14.593,26.259,109.804,20.533,136.994,11.416c-0.712,2.942-4.398,9.016-2.344,11.365
			c16.871-11.81,87.416,39.452,88.679-16.666c-11.616,2.359-25.724,7.198-36.695,0.153c36.144-31.616,79.688-51.907,102.745-97.547
			C2452.676,1415.408,2387.838,1451.912,2339.64,1470.651z"/>
		<g>
			
				<linearGradient id="SVGID_00000114768103565929707180000007311509319363551629_" gradientUnits="userSpaceOnUse" x1="1379.9027" y1="2130.0171" x2="1328.8754" y2="2819.8979" gradientTransform="matrix(0.9338 -0.3579 0.3579 0.9338 -212.5795 -78.0037)">
				<stop  offset="0" style="stop-color:#2B3582"/>
				<stop  offset="1" style="stop-color:#150E42"/>
			</linearGradient>
			<path style="fill:url(#SVGID_00000114768103565929707180000007311509319363551629_);" d="M1843.058,1619.77
				c0,0,7.068-13.883,17.433-19.799c10.365-5.916,3.473,10.329-1.322,15.568c-4.794,5.238-6.803,10.138-6.803,10.138
				s4.323,61.989,43.442,74.69c39.12,12.701,59.865,28.8,95.449,15.163c35.585-13.637,48.959-3.459,52.209,16.43
				s-4.505,49.096,13.371,53.906c17.876,4.809,26.232,3.793,38.324,23.937c12.093,20.144,18.914,40.382,25.728,41.049
				c6.814,0.668,6.392,16.68,6.392,16.68s-20.555-0.867-24.573-11.352c-4.018-10.484-25.554-48.141-25.554-48.141
				s-69.472-0.157-76.968-12.587s-16.089-27.72-16.089-27.72s-87.344,23.089-99.717,13.621s-69.517-23.094-67.517-10.744
				c2,12.35,12.493,25.915,12.185,27.49c-0.307,1.575,22.713,4.596,25.331,11.427c2.618,6.831,4.912,18.523,4.912,18.523
				s-26.938-16.094-34.237-20.402c-7.299-4.308-10.311-18.823-11.285-21.364s-39.352-22.815-22.454-26.74
				c16.897-3.925,29.534-9.459,52.714-6.974c-5.963-18.412-0.952-41.467-1.427-52.216c-0.476-10.749-18.344-42.162-18.344-42.162
				s-30.885,5.459-35.375,1.35c-4.49-4.109-22.437-10.531-4.354-15.64s40.763-13.436,40.499-16.978
				C1824.765,1623.38,1831.634,1617.815,1843.058,1619.77z"/>
			
				<linearGradient id="SVGID_00000009554709704594467470000008430096185181127586_" gradientUnits="userSpaceOnUse" x1="1310.9589" y1="2124.9175" x2="1259.9319" y2="2814.7939" gradientTransform="matrix(0.9338 -0.3579 0.3579 0.9338 -212.5795 -78.0037)">
				<stop  offset="0" style="stop-color:#2B3582"/>
				<stop  offset="1" style="stop-color:#150E42"/>
			</linearGradient>
			<path style="fill:url(#SVGID_00000009554709704594467470000008430096185181127586_);" d="M1831.765,1625.798
				c0,0,11.499-14.367,7.846-23.898c-3.653-9.532-22.426-13.512-30.386-16.534c-7.96-3.022-21.665,3.687-22.624-11.492
				c-0.959-15.179-0.5-17.785-0.5-17.785s3.444,21.029,8.541,21.019c5.098-0.01,20.729,2.745,20.729,2.745
				s-15.242-15.05-9.187-25.873c0,0,12.689,25.503,18.142,27.056c5.454,1.554,6.897,6.588,6.897,6.588s-4.012-22.512,3.162-29.148
				c0,0,0.005,22.833,6.32,26c6.315,3.167,7.977,16.377,3.648,27.267c-4.329,10.89-3.052,18.66-3.052,18.66L1831.765,1625.798z"/>
			
				<linearGradient id="SVGID_00000158028200716864101610000004288476583064313739_" gradientUnits="userSpaceOnUse" x1="1490.522" y1="2138.2087" x2="1439.496" y2="2828.071" gradientTransform="matrix(0.9338 -0.3579 0.3579 0.9338 -212.5795 -78.0037)">
				<stop  offset="0" style="stop-color:#2B3582"/>
				<stop  offset="1" style="stop-color:#150E42"/>
			</linearGradient>
			<path style="fill:url(#SVGID_00000158028200716864101610000004288476583064313739_);" d="M2028.769,1715.001
				c1.761-1.586,13.17-12.699,11.932-18.784c-1.239-6.084-4.754-18.584-4.091-20.659c7.397,4.089,9.48,8.574,10.174,10.859
				c0.693,2.285,2.703-3.405,2.703-3.405s9.645,3.774,5.418,14.138c-4.226,10.365-3.011,15.912-20.287,19.8
				C2017.342,1720.838,2028.769,1715.001,2028.769,1715.001z"/>
		</g>
		
			<linearGradient id="SVGID_00000054252010765500210850000016678299950727963784_" gradientUnits="userSpaceOnUse" x1="2019.5719" y1="678.1339" x2="1585.0118" y2="4535.6694">
			<stop  offset="0" style="stop-color:#2B3582"/>
			<stop  offset="1" style="stop-color:#150E42"/>
		</linearGradient>
		<path style="fill:url(#SVGID_00000054252010765500210850000016678299950727963784_);" d="M525.69,2288.205
			c468.065,1398.456,2115.158,625.233,2607.5,155.409C2161.147,1676.021,1123.851,1747.644,525.69,2288.205z"/>
		
			<linearGradient id="SVGID_00000047756506627774975910000012116399207767762308_" gradientUnits="userSpaceOnUse" x1="2152.8103" y1="1230.2164" x2="1598.7872" y2="3290.9084">
			<stop  offset="0" style="stop-color:#FDF53F"/>
			<stop  offset="0.078" style="stop-color:#F5CE47"/>
			<stop  offset="0.1691" style="stop-color:#EEA74F"/>
			<stop  offset="0.2671" style="stop-color:#E78656"/>
			<stop  offset="0.3717" style="stop-color:#E26B5B"/>
			<stop  offset="0.4851" style="stop-color:#DE5660"/>
			<stop  offset="0.6118" style="stop-color:#DB4763"/>
			<stop  offset="0.7627" style="stop-color:#DA3F64"/>
			<stop  offset="1" style="stop-color:#D93C65"/>
		</linearGradient>
		<path style="fill:url(#SVGID_00000047756506627774975910000012116399207767762308_);" d="M543.688,2355.428
			c601.582,1374.445,2231.156,985.158,2589.502,88.186C1769.279,2798.667,1843.599,1617.573,543.688,2355.428z"/>
		<g>
			<g>
				
					<linearGradient id="SVGID_00000143613347733011303500000007307653067707187884_" gradientUnits="userSpaceOnUse" x1="522.1989" y1="2825.6492" x2="677.9819" y2="2101.0225">
					<stop  offset="0" style="stop-color:#2B3582"/>
					<stop  offset="1" style="stop-color:#150E42"/>
				</linearGradient>
				<path style="fill:url(#SVGID_00000143613347733011303500000007307653067707187884_);" d="M754.375,1378.187
					c0,0,4.633,11.34,11.684,31.491c3.492,10.094,7.634,22.391,11.97,36.637c4.264,14.265,8.997,30.404,13.212,48.288
					c4.227,17.874,8.37,37.391,11.205,58.391c1.284,10.52,2.487,21.362,2.951,32.569l0.247,4.205l0.021,4.365
					c-0.005,2.774-0.009,5.563-0.014,8.364c-0.443,5.809-0.528,11.909-1.431,17.682c-2.759,23.529-9.607,46.926-20.238,69.76
					c-10.711,22.483-26.298,41.959-33.349,62.965l-1.323,3.918l-0.332,0.978c0.26-1.004,0.037-0.118,0.078-0.27l-0.06,0.279
					l-0.122,0.557l-0.484,2.229l-1.939,8.914c-1.618,6.101-1.719,11.463-2.432,17.052c-0.798,5.405-0.802,11.373-1.017,17.165
					c-0.32,5.778-0.166,11.649-0.002,17.495c0.539,23.382,2.902,46.695,4.28,69.825c0.267,5.842,0.645,11.532,0.811,17.365
					c0.131,5.602,0.263,11.15,0.394,16.639c0.26,10.978,0.514,21.718,0.763,32.173c0.496,20.91,0.966,40.68,1.397,58.928
					c0.867,36.497,1.588,66.912,2.093,88.202c0.325,21.403,0.509,33.633,0.509,33.633l-33.045-0.147c0,0,0.256-12.105,0.701-33.288
					c0.265-21.295,0.643-51.716,1.095-88.222c0.226-18.253,0.473-38.027,0.733-58.942c0.129-10.457,0.263-21.2,0.399-32.18
					c0.067-5.49,0.136-11.04,0.205-16.643c0.044-5.371-0.124-10.983-0.177-16.543c-0.512-22.45-2.068-46.175-1.759-70.711
					c0.053-6.132,0.118-12.287,0.678-18.547c0.461-6.248,0.673-12.396,1.839-18.974c1.023-6.398,1.703-13.22,3.439-18.847
					l2.259-8.838l0.565-2.21l0.438-1.65l0.436-1.17l1.752-4.674c4.774-12.417,11.472-23.406,18.094-33.718
					c3.273-5.063,6.539-10.115,9.796-15.153l4.46-7.271l4.324-7.874c10.31-20.232,17.776-42.366,21.059-64.083
					c1.065-5.477,1.272-10.726,1.918-16.063c0.106-2.8,0.212-5.586,0.316-8.358l0.129-3.932l-0.095-4.044
					c-0.053-10.757-0.839-21.313-1.715-31.593c-2.021-20.558-5.398-39.915-8.932-57.695c-3.52-17.796-7.627-33.949-11.343-48.242
					c-3.789-14.279-7.459-26.635-10.564-36.785c-6.293-20.294-10.46-31.654-10.46-31.654L754.375,1378.187z"/>
				
					<linearGradient id="SVGID_00000183965564552890451090000009981341159529454238_" gradientUnits="userSpaceOnUse" x1="545.7505" y1="2830.7129" x2="701.5335" y2="2106.0867">
					<stop  offset="0" style="stop-color:#2B3582"/>
					<stop  offset="1" style="stop-color:#150E42"/>
				</linearGradient>
				<path style="fill:url(#SVGID_00000183965564552890451090000009981341159529454238_);" d="M784.093,1653.299
					c0,0,2.137-3.118,5.751-8.895c3.589-5.746,8.602-14.059,14.123-24.291c5.504-10.23,11.55-22.387,16.85-35.8
					c2.582-6.72,5.055-13.733,6.936-20.963c0.922-3.617,1.862-7.263,2.395-10.95l0.486-2.763l0.214-1.203l0.138-1.464l0.546-5.862
					c0.424-7.47,0.378-14.96-0.26-22.576c-0.507-7.542-1.498-15.018-2.43-22.273c-1.969-14.527-3.972-28.315-4.343-40.46
					c-0.138-3.024,0.005-5.976-0.002-8.753c0.104-2.792,0.417-5.463,0.602-7.959c0.715-4.998,1.491-9.366,2.685-12.869
					c0.894-3.57,2.247-6.183,3.02-8.006c0.804-1.813,1.233-2.78,1.233-2.78l7.676,3.965c0,0-0.353,0.834-1.014,2.398
					c-0.634,1.573-1.791,3.783-2.517,6.917c-1.014,3.02-1.641,6.902-2.243,11.372c-0.134,2.277-0.399,4.675-0.466,7.244
					c0.044,2.589-0.069,5.287,0.095,8.143c0.47,11.418,2.554,24.858,4.704,39.473c1.023,7.333,2.121,14.939,2.743,22.817
					c0.747,7.782,0.915,16.032,0.512,24.237l-0.482,5.867l-0.122,1.465l-0.253,1.698l-0.493,3.026
					c-0.553,4.069-1.51,7.982-2.457,11.867c-1.929,7.755-4.442,15.139-7.065,22.186c-5.368,14.041-11.449,26.603-16.983,37.17
					c-5.55,10.564-10.585,19.126-14.208,25.074c-3.607,5.914-5.871,9.302-5.871,9.302L784.093,1653.299z"/>
				
					<linearGradient id="SVGID_00000068665959074860403580000017537813386278488705_" gradientUnits="userSpaceOnUse" x1="568.772" y1="2835.6621" x2="724.5549" y2="2111.0359">
					<stop  offset="0" style="stop-color:#2B3582"/>
					<stop  offset="1" style="stop-color:#150E42"/>
				</linearGradient>
				<path style="fill:url(#SVGID_00000068665959074860403580000017537813386278488705_);" d="M832.476,1544.623
					c0,0,0.343-0.266,0.989-0.766c0.661-0.544,1.655-1.403,2.893-2.567c2.466-2.342,5.869-5.976,9.388-10.832
					c1.75-2.433,3.568-5.141,5.276-8.145c1.717-2.993,3.453-6.223,4.91-9.719c1.591-3.441,2.874-7.161,4.119-10.957
					c0.556-1.924,1.116-3.863,1.678-5.81l1.295-5.972c0.844-4.067,1.247-7.924,1.89-12.23c0.562-4.118,1.116-8.171,1.65-12.092
					c0.539-3.925,1.489-7.823,2.162-11.451c0.602-3.662,1.796-7.022,2.623-10.157c0.74-3.143,2.178-5.932,3.084-8.434
					c1.173-2.463,2.333-4.586,3.563-6.256c0.675-0.816,1.279-1.544,1.803-2.178c0.659-0.596,1.307-1.067,1.798-1.448
					c1.067-0.746,1.975-0.97,1.918-0.99l1.494,4.479c-0.014,0.049-0.198,0.06-0.719,0.476c-0.272,0.241-0.604,0.538-0.996,0.887
					c-0.362,0.494-0.779,1.061-1.247,1.696c-0.878,1.327-1.816,3.235-2.738,5.435c-0.715,2.375-1.897,4.837-2.464,7.911
					c-0.638,3.02-1.625,6.201-2.028,9.738c-0.479,3.532-1.203,7.119-1.558,11.057c-0.35,3.943-0.712,8.017-1.079,12.158
					c-0.408,3.933-0.682,8.511-1.365,12.744l-1.086,6.447c-0.505,2.12-1.007,4.232-1.505,6.327
					c-1.143,4.152-2.349,8.244-3.898,12.071c-1.411,3.877-3.135,7.501-4.866,10.879c-1.724,3.389-3.589,6.479-5.405,9.274
					c-3.66,5.583-7.298,9.872-10.052,12.748c-1.385,1.434-2.538,2.531-3.37,3.283c-0.885,0.756-1.358,1.159-1.358,1.159
					L832.476,1544.623z"/>
			</g>
			
				<linearGradient id="SVGID_00000121973978177790383990000011361575773278484880_" gradientUnits="userSpaceOnUse" x1="573.3353" y1="1341.7205" x2="1125.8296" y2="1341.7205">
				<stop  offset="0" style="stop-color:#2B3582"/>
				<stop  offset="1" style="stop-color:#150E42"/>
			</linearGradient>
			<path style="fill:url(#SVGID_00000121973978177790383990000011361575773278484880_);" d="M595.902,1451.991
				c-13.458-5.863-23.281-15.875-22.526-32.324c0.984-21.435,29.043-34.641,29.625-57.466c0.424-16.659-14.205-32.001-10.397-48.225
				c3.731-15.897,22.505-22.504,38.629-25.079c16.124-2.575,48.572-33.502,51.608-40.608c7.608-17.808,29.125-28.374,47.868-23.506
				c-19.635-5.1,40.356-69.972,46.485-73.603c34.253-20.29,99.589-34.098,138.377-20.363c27.656,9.793,44.423,43.165,35.773,71.2
				c1.974-5.922,115.268,29.008,123.863,32.846c14.784,6.602,34.234,17.679,29.326,37.008c-2.148,8.458-0.139,48.46,9.552,56.095
				c9.691,7.634,31.561,167.533-30.614,184.89c-14.162,3.953-68.823,34.338-85.3,41.13c-23.628,9.74-51.221,1.155-72.341-13.236
				c-21.12-14.39-38.021-34.109-57.994-50.054c-40.418-32.267-93.628-48.035-145.101-42.999
				c-24.201,2.368-47.828,9.106-72.052,11.222C636.096,1460.194,613.049,1459.461,595.902,1451.991z"/>
			
				<linearGradient id="SVGID_00000051372000437947027890000017942941473464867499_" gradientUnits="userSpaceOnUse" x1="882.1602" y1="1379.6548" x2="840.4962" y2="1600.3623">
				<stop  offset="0" style="stop-color:#2B3582"/>
				<stop  offset="1" style="stop-color:#150E42"/>
			</linearGradient>
			<path style="fill:url(#SVGID_00000051372000437947027890000017942941473464867499_);" d="M762.933,1724.291
				c35.625-54.824,76.013-85.278,122.076-86.707l5.945,13.513c-36.853-6.896-84.454,23.26-138.246,96.284L762.933,1724.291z"/>
			
				<linearGradient id="SVGID_00000026875617934987772050000004023792399658655906_" gradientUnits="userSpaceOnUse" x1="807.0779" y1="1307.2742" x2="738.3419" y2="1563.3857" gradientTransform="matrix(0.4096 0.9123 0.9123 -0.4096 -939.214 1451.6464)">
				<stop  offset="0" style="stop-color:#2B3582"/>
				<stop  offset="1" style="stop-color:#150E42"/>
			</linearGradient>
			<path style="fill:url(#SVGID_00000026875617934987772050000004023792399658655906_);" d="M792.095,1549.624
				c-45.106-9.599-76.61-29.294-91.916-61.017l6.507-7.902c7.267,27.615,30.748,46.962,95.003,65.922L792.095,1549.624z"/>
			
				<linearGradient id="SVGID_00000069355490859448116830000014567361268384188578_" gradientUnits="userSpaceOnUse" x1="-2746.7698" y1="-455.3671" x2="-2569.1226" y2="-455.3671" gradientTransform="matrix(-0.9966 -0.0819 0.0819 -0.9966 -1690.6261 1003.5436)">
				<stop  offset="0" style="stop-color:#2B3582"/>
				<stop  offset="1" style="stop-color:#150E42"/>
			</linearGradient>
			<path style="fill:url(#SVGID_00000069355490859448116830000014567361268384188578_);" d="M974.692,1679.566
				c0,0-45.269,68.154-70.673,53.068c-25.404-15.086-24.543-11.149-44.71-32.325c-20.167-21.176-41.579-34.404-13.002-43.526
				c28.577-9.121,3.067-51.741,84.502-41.228C1012.244,1626.07,1041.407,1667.461,974.692,1679.566z"/>
			
				<linearGradient id="SVGID_00000174566962318812576330000003256925887451414956_" gradientUnits="userSpaceOnUse" x1="-2109.9988" y1="-1243.0833" x2="-1975.3722" y2="-1243.0833" gradientTransform="matrix(-0.9667 0.2373 -0.1767 -0.7197 -1507.8247 1094.384)">
				<stop  offset="0" style="stop-color:#2B3582"/>
				<stop  offset="1" style="stop-color:#150E42"/>
			</linearGradient>
			<path style="fill:url(#SVGID_00000174566962318812576330000003256925887451414956_);" d="M734.25,1492.318
				c0,0-21.356,19.566-35.643,18.022c-14.286-1.544-20.114,26.081-32.656,21.574c-12.541-4.507-57.71-18.511-45.042-26.078
				c12.668-7.567,42.852-21.174,83.712-29.719C745.482,1467.572,765.023,1477.929,734.25,1492.318z"/>
		</g>
		<g>
			<g>
				
					<linearGradient id="SVGID_00000134233005642312515020000007937245597205524367_" gradientUnits="userSpaceOnUse" x1="3511.29" y1="1012.0681" x2="1916.792" y2="3457.8645">
					<stop  offset="0" style="stop-color:#2B3582"/>
					<stop  offset="1" style="stop-color:#150E42"/>
				</linearGradient>
				<path style="fill:url(#SVGID_00000134233005642312515020000007937245597205524367_);" d="M2874.188,1612.923
					c0,0,4.633,11.34,11.684,31.491c3.492,10.094,7.634,22.391,11.97,36.637c4.264,14.265,8.996,30.404,13.212,48.288
					c4.227,17.874,8.369,37.391,11.205,58.391c1.284,10.52,2.487,21.362,2.95,32.569l0.247,4.205l0.021,4.365
					c-0.005,2.774-0.009,5.563-0.014,8.364c-0.443,5.809-0.528,11.909-1.431,17.682c-2.759,23.529-9.607,46.926-20.238,69.76
					c-10.711,22.483-26.298,41.959-33.349,62.965l-1.323,3.918l-0.332,0.978c0.26-1.004,0.037-0.118,0.078-0.27l-0.06,0.279
					l-0.122,0.557l-0.484,2.23l-1.939,8.914c-1.618,6.101-1.719,11.463-2.432,17.052c-0.798,5.405-0.802,11.373-1.017,17.165
					c-0.32,5.778-0.166,11.649-0.002,17.495c0.539,23.382,2.902,46.695,4.28,69.825c0.268,5.842,0.646,11.532,0.812,17.365
					c0.131,5.602,0.263,11.15,0.394,16.639c0.26,10.978,0.514,21.718,0.763,32.173c0.496,20.91,0.966,40.68,1.397,58.928
					c0.867,36.497,1.588,66.912,2.093,88.202c0.325,21.403,0.51,33.633,0.51,33.633l-33.045-0.147c0,0,0.256-12.104,0.701-33.288
					c0.265-21.295,0.643-51.716,1.095-88.222c0.226-18.253,0.473-38.027,0.733-58.942c0.129-10.457,0.263-21.2,0.399-32.18
					c0.067-5.49,0.136-11.04,0.205-16.643c0.044-5.371-0.125-10.983-0.177-16.543c-0.512-22.45-2.068-46.175-1.759-70.711
					c0.053-6.132,0.117-12.287,0.677-18.547c0.461-6.247,0.673-12.396,1.84-18.974c1.023-6.398,1.703-13.22,3.439-18.847
					l2.259-8.838l0.565-2.21l0.438-1.65l0.436-1.17l1.752-4.674c4.774-12.417,11.472-23.406,18.094-33.718
					c3.273-5.063,6.54-10.115,9.796-15.153l4.46-7.272l4.324-7.874c10.311-20.232,17.776-42.366,21.059-64.083
					c1.065-5.477,1.272-10.726,1.918-16.063c0.106-2.8,0.212-5.586,0.316-8.358l0.129-3.932l-0.094-4.044
					c-0.053-10.757-0.839-21.313-1.715-31.593c-2.021-20.558-5.398-39.915-8.932-57.695c-3.52-17.796-7.627-33.949-11.343-48.242
					c-3.789-14.279-7.459-26.635-10.564-36.785c-6.292-20.294-10.46-31.654-10.46-31.654L2874.188,1612.923z"/>
				
					<linearGradient id="SVGID_00000004523082488616564010000015461549949635550135_" gradientUnits="userSpaceOnUse" x1="3389.4292" y1="932.6279" x2="1794.9307" y2="3378.425">
					<stop  offset="0" style="stop-color:#2B3582"/>
					<stop  offset="1" style="stop-color:#150E42"/>
				</linearGradient>
				<path style="fill:url(#SVGID_00000004523082488616564010000015461549949635550135_);" d="M2851.379,1994.495
					c0,0-0.772-1.452-2.22-4.173c-1.408-2.698-3.423-6.644-5.878-11.706c-4.903-10.126-11.64-24.686-18.597-42.65
					c-6.927-17.96-14.218-39.309-19.365-63.023c-2.549-11.853-4.539-24.304-5.348-37.15c-0.768-12.827-0.482-26.105,2.229-39.193
					c0.83-3.247,1.374-6.537,2.524-9.714l2.944-9.073l2.916-8.958c0.867-2.954,1.422-5.824,2.155-8.728
					c1.581-5.709,2.284-11.741,3.276-17.59c0.733-5.89,1.236-11.763,1.533-17.541c0.076-5.79,0.38-11.497-0.025-17.078
					c-0.145-2.79-0.187-5.56-0.41-8.284c-0.284-2.721-0.56-5.409-0.834-8.06c-0.422-5.325-1.554-10.408-2.254-15.387
					c-1.042-4.912-1.969-9.692-3.142-14.207c-2.367-9.022-4.875-17.234-7.694-24.271c-1.293-3.572-2.722-6.814-4.082-9.795
					c-1.27-3.032-2.697-5.67-3.935-8.084c-1.187-2.451-2.462-4.492-3.541-6.29c-1.06-1.815-1.991-3.336-2.858-4.469
					c-1.657-2.339-2.542-3.586-2.542-3.586l3.748-3.044c0,0,0.989,1.296,2.847,3.726c0.975,1.194,2.005,2.754,3.181,4.609
					c1.196,1.844,2.609,3.95,3.923,6.436c1.374,2.458,2.953,5.159,4.37,8.233c1.514,3.033,3.105,6.335,4.564,9.961
					c3.158,7.162,6.035,15.51,8.798,24.729c1.369,4.613,2.499,9.503,3.748,14.543c0.908,5.109,2.252,10.334,2.886,15.829
					c0.378,2.739,0.763,5.516,1.153,8.327c0.33,2.818,0.479,5.692,0.731,8.589c0.615,5.792,0.519,11.748,0.643,17.803
					c-0.24,12.138-1.129,24.587-3.813,37.293c-0.676,3.152-1.238,6.44-2.031,9.521c-0.867,3.01-1.733,6.029-2.605,9.055
					l-2.584,9.016c-0.927,2.8-1.289,5.799-1.939,8.692c-2.021,11.775-1.89,24.01-0.754,35.95
					c1.171,11.962,3.455,23.692,6.279,34.908c5.696,22.45,13.448,42.856,20.761,60.005c7.339,17.16,14.374,31.072,19.445,40.679
					c2.538,4.804,4.608,8.529,6.03,11.035c1.42,2.462,2.178,3.775,2.178,3.775L2851.379,1994.495z"/>
				
					<linearGradient id="SVGID_00000022544961053362291640000018060572507596634796_" gradientUnits="userSpaceOnUse" x1="3358.2419" y1="832.4122" x2="1684.7749" y2="3399.3391">
					<stop  offset="0" style="stop-color:#2B3582"/>
					<stop  offset="1" style="stop-color:#150E42"/>
				</linearGradient>
				<path style="fill:url(#SVGID_00000022544961053362291640000018060572507596634796_);" d="M2812.756,1790.745
					c0,0-0.5,0.108-1.44,0.311c-0.915,0.172-2.242,0.388-3.93,0.546c-3.377,0.271-8.208,0.51-14.072-1.109
					c-2.926-0.837-6.124-2.121-9.431-4.686c-3.267-2.504-6.785-6.543-9.311-13.065c-1.235-3.256-2.144-7.015-2.683-10.913
					c-0.485-4.179-0.587-7.23-0.833-10.644c-0.44-6.734-0.887-13.575-1.333-20.416c-0.476-6.821-0.798-13.748-1.199-20.506
					c-0.38-6.771-0.755-13.435-1.116-19.883c-0.346-6.452-0.551-12.724-0.814-18.65c-0.246-5.929-0.479-11.535-0.694-16.71
					c-0.281-5.147-0.221-9.991-0.303-14.227c-0.049-4.247-0.094-7.949-0.13-10.998c-0.069-6.092-0.11-9.573-0.11-9.573l3.873,0.131
					c0,0,0.099,3.405,0.271,9.364c0.085,2.976,0.19,6.591,0.309,10.736c0.151,4.149,0.164,8.802,0.531,13.93
					c0.3,5.117,0.624,10.66,0.967,16.523c0.361,5.86,0.666,12.046,1.118,18.428c0.468,6.379,0.951,12.97,1.441,19.668
					c0.511,6.7,0.941,13.488,1.534,20.305c0.561,6.812,1.123,13.623,1.675,20.328c0.28,3.296,0.535,6.956,0.858,9.26
					c0.409,2.516,1.009,4.779,1.806,6.758c1.623,3.919,4.04,6.698,6.641,8.496c2.594,1.845,5.322,2.813,7.875,3.381
					c5.129,1.121,9.586,0.668,12.644,0.234c1.535-0.234,2.735-0.501,3.539-0.701c0.777-0.213,1.192-0.327,1.192-0.327
					L2812.756,1790.745z"/>
				
					<linearGradient id="SVGID_00000045604245455038872370000005222660630537842092_" gradientUnits="userSpaceOnUse" x1="3109.7004" y1="1137.9559" x2="2048.96" y2="2765.0229">
					<stop  offset="0" style="stop-color:#2B3582"/>
					<stop  offset="1" style="stop-color:#150E42"/>
				</linearGradient>
				<path style="fill:url(#SVGID_00000045604245455038872370000005222660630537842092_);" d="M2773.987,1745.042
					c0,0-0.5,0.071-1.44,0.203c-0.915,0.113-2.242,0.254-3.93,0.357c-3.377,0.177-8.208,0.334-14.072-0.726
					c-2.926-0.548-6.124-1.388-9.432-3.066c-3.267-1.638-6.784-4.281-9.31-8.548c-1.235-2.13-2.144-4.589-2.683-7.14
					c-0.485-2.734-0.587-4.73-0.833-6.964c-0.44-4.406-0.887-8.882-1.333-13.358c-0.476-4.463-0.798-8.995-1.199-13.417
					c-0.38-4.43-0.755-8.79-1.116-13.009c-0.346-4.221-0.551-8.325-0.814-12.202c-0.246-3.879-0.479-7.547-0.694-10.933
					c-0.281-3.368-0.221-6.537-0.303-9.308c-0.049-2.779-0.094-5.201-0.13-7.196c-0.069-3.986-0.11-6.263-0.11-6.263l3.874,0.086
					c0,0,0.099,2.228,0.271,6.126c0.085,1.947,0.19,4.312,0.309,7.024c0.151,2.714,0.164,5.759,0.531,9.114
					c0.3,3.348,0.624,6.975,0.967,10.811c0.361,3.834,0.666,7.881,1.118,12.057c0.468,4.173,0.951,8.486,1.441,12.868
					c0.511,4.384,0.941,8.825,1.534,13.285c0.561,4.457,1.123,8.913,1.675,13.3c0.28,2.157,0.535,4.551,0.858,6.059
					c0.409,1.646,1.009,3.127,1.806,4.422c1.623,2.564,4.04,4.382,6.641,5.559c2.594,1.207,5.322,1.84,7.875,2.212
					c5.129,0.733,9.586,0.437,12.644,0.153c1.535-0.153,2.735-0.328,3.539-0.458c0.777-0.14,1.192-0.214,1.192-0.214
					L2773.987,1745.042z"/>
				
					<linearGradient id="SVGID_00000124150398930347028890000009582775113056777380_" gradientUnits="userSpaceOnUse" x1="3589.9365" y1="946.7409" x2="1995.4344" y2="3392.5435">
					<stop  offset="0" style="stop-color:#2B3582"/>
					<stop  offset="1" style="stop-color:#150E42"/>
				</linearGradient>
				<path style="fill:url(#SVGID_00000124150398930347028890000009582775113056777380_);" d="M3048.055,1845.827
					c0,0-0.424,3.147-1.533,8.502c-1.125,5.358-2.907,12.988-5.979,21.927c-1.547,4.465-3.423,9.255-5.823,14.185
					c-2.423,4.912-5.29,10.025-9.174,14.836c-3.868,4.769-8.713,9.438-15.056,12.36c-3.119,1.494-6.585,2.501-10.124,2.838
					c-1.86,0.214-3.428,0.273-4.93,0.323l-4.642,0.18c-24.68,0.898-49.355,1.977-67.053,4.94
					c-8.761,1.419-15.914,3.516-19.102,5.504c-1.634,0.976-1.867,1.612-1.731,1.465c0.063-0.1,0.201-0.444,0.127-0.403
					l-14.061-1.696c0.083,0.102,0.085-1.939,1.57-4.573c1.452-2.719,4.324-5.223,7.459-6.816c6.336-3.262,14.429-4.814,23.995-5.96
					c19.076-2.187,43.943-1.96,68.678-1.624l4.626,0.054c1.586,0.031,3.1,0.034,4.308-0.057c2.6-0.103,5.152-0.698,7.57-1.711
					c4.889-1.925,9.158-5.524,12.76-9.543c3.621-4.036,6.528-8.618,9.024-13.101c2.485-4.506,4.511-8.989,6.212-13.205
					c3.393-8.447,5.513-15.807,6.874-20.968c1.346-5.181,1.897-8.143,1.897-8.143L3048.055,1845.827z"/>
			</g>
			
				<linearGradient id="SVGID_00000008827788138713517390000014508988045431745927_" gradientUnits="userSpaceOnUse" x1="3342.01" y1="956.4619" x2="1881.3834" y2="3196.9133">
				<stop  offset="0" style="stop-color:#2B3582"/>
				<stop  offset="1" style="stop-color:#150E42"/>
			</linearGradient>
			<path style="fill:url(#SVGID_00000008827788138713517390000014508988045431745927_);" d="M3188.26,1591.965
				c-10.982-17.008,3.999-41.952-1.12-62.599c-6.78-27.348-27.085-47.533-51.279-60.729c-17.053-9.302-31.849-15.666-37.025-36.86
				c-1.666-6.822-1.865-13.925-3.33-20.793c-4.345-20.362-19.628-37.036-37.442-47.814c-15.416-9.327-36.651-11.325-50.53-22.377
				c-9.87-7.859-14.901-21.481-22.326-31.476c-18.51-24.916-37.899-34.101-68.074-20.066
				c-67.661,31.471-86.544,77.104-135.324,99.133c-48.781,22.03-94.414,78.678-72.384,94.414c12.823,9.16-34.812,29.795-39.8,32.597
				c-32.046,18.002-44.933,34.232-51.576,71.011c-2.128,11.779-0.748,24.709,6.384,34.322c7.564,10.194,20.145,15.098,32.048,19.508
				c8.46,3.134,16.92,6.269,25.394,9.408c38.015,14.08,121.68-36.489,147.131-11.071c17.386,17.363,31.188,38.681,53.159,51.006
				c20.98,11.769,50.295,15.041,73.743,20.82c65.504,16.144,135.991,12.298,199.122-11.631c17.264-6.544,34.54-14.94,46.419-29.073
				s17.082-35.243,8.266-51.465c-5.304-9.76-14.796-16.548-21.084-25.705C3188.505,1592.339,3188.381,1592.152,3188.26,1591.965z"/>
			
				<linearGradient id="SVGID_00000030450471941299025820000007528553777832491404_" gradientUnits="userSpaceOnUse" x1="3617.6555" y1="980.7518" x2="2023.1541" y2="3426.5535">
				<stop  offset="0" style="stop-color:#2B3582"/>
				<stop  offset="1" style="stop-color:#150E42"/>
			</linearGradient>
			<path style="fill:url(#SVGID_00000030450471941299025820000007528553777832491404_);" d="M2994.161,1845.061
				c0,0,39.536-55.468,66.09-45.437c26.554,10.031,25.374,7.048,47.207,22.112c21.833,15.064,44.257,23.915,16.522,32.766
				s1.18,40.126-80.842,37.175C2961.116,1888.728,2928.662,1858.633,2994.161,1845.061z"/>
		</g>
		
			<linearGradient id="SVGID_00000150783458194992373090000010403405358852787077_" gradientUnits="userSpaceOnUse" x1="1480.9844" y1="-1381.1373" x2="1607.5098" y2="-1381.1373" gradientTransform="matrix(0.352 0.936 -0.936 0.352 310.8546 379.5337)">
			<stop  offset="0" style="stop-color:#444B8C"/>
			<stop  offset="0.9964" style="stop-color:#26264F"/>
		</linearGradient>
		<path style="fill:url(#SVGID_00000150783458194992373090000010403405358852787077_);" d="M2091.828,1320.014
			c-5.855-0.573-10.022,0.009-12.234,1.928c7.463,4.325,8.06,6.51,12.49,9.829c-0.012,0.122-0.024,0.244-0.036,0.365
			c-1.929,19.499,3.779,39.086,16.238,54.208c22.022,26.729,47.654,12.242,61.869,11.39c-22.466-9.422-53.652-20.724-46.698-38.898
			c62.303,44.107,44.762,1.702,91.74-2.021c-53.316-12.35-52.145,11.334-91.68-18.56c-13.206-49.518,14.996-20.236,49.453-55.591
			C2129.947,1306.302,2081.181,1261.285,2091.828,1320.014z"/>
		<g>
			
				<linearGradient id="SVGID_00000109725886587390379200000004731209446776308921_" gradientUnits="userSpaceOnUse" x1="2756.9895" y1="1836.1993" x2="2695.8445" y2="1951.5015">
				<stop  offset="0" style="stop-color:#2B3582"/>
				<stop  offset="1" style="stop-color:#150E42"/>
			</linearGradient>
			<path style="fill:url(#SVGID_00000109725886587390379200000004731209446776308921_);" d="M2668.573,1973.184
				c0,0,12.777,0.274,14.646,17.346c1.869,17.072-6.287,28.686-13.514,29.41C2662.477,2020.663,2668.573,1973.184,2668.573,1973.184
				z"/>
			
				<linearGradient id="SVGID_00000072269862989883933190000004103539536195735215_" gradientUnits="userSpaceOnUse" x1="2582.7688" y1="1652.0992" x2="2489.3042" y2="2087.1028">
				<stop  offset="0" style="stop-color:#2B3582"/>
				<stop  offset="1" style="stop-color:#150E42"/>
			</linearGradient>
			<path style="fill:url(#SVGID_00000072269862989883933190000004103539536195735215_);" d="M2437.605,2075.301
				c8.054-21.645,15.155-68.946,15.155-68.946l-38.286-39.076c0,0-8.053,97.136-13.117,98.905
				c-5.063,1.768-33.598,16.52-15.739,20.356c12.583,2.703,29.861,8.617,42.004,1.499c18.022-10.57,25.487-38.285,34.502-55.973
				c28.697,4.407,57.395,8.814,86.092,13.221c-2.323,11.383-3.79,22.94-4.385,34.542c-0.228,4.447-0.4,9.144-2.791,12.901
				c-5.78,9.082-34.286,2.563-35.227,17.698c-1.002,16.123,52.185,8.671,60.428,7.576c10.342-15.779,20.678-31.561,31.025-47.337
				c4.24-6.464,9.173-12.178,10.332-19.61c1.371-8.785-1.652-19.526-1.264-28.62c0.209-4.9-0.61-10.318-4.301-13.548
				c-2.369-2.073-5.546-2.907-8.598-3.677c-59.307-14.96-117.625-32.583-177.718-44.495c0.174,2.173,0.348,4.345,0.522,6.518
				L2437.605,2075.301z"/>
			
				<linearGradient id="SVGID_00000150102836220430325310000006674105304420373140_" gradientUnits="userSpaceOnUse" x1="2341.1711" y1="1734.5552" x2="2328.9419" y2="1849.8579">
				<stop  offset="0" style="stop-color:#2B3582"/>
				<stop  offset="1" style="stop-color:#150E42"/>
			</linearGradient>
			<path style="fill:url(#SVGID_00000150102836220430325310000006674105304420373140_);" d="M2314.023,1889.229
				c0,0,2.342-21.537,10.153-17.936c7.81,3.601,12.161,10.145,12.161,10.145L2314.023,1889.229z"/>
			
				<linearGradient id="SVGID_00000006682500654872508330000013013854148832587959_" gradientUnits="userSpaceOnUse" x1="2848.7742" y1="1232.8397" x2="2349.134" y2="2242.6001" gradientTransform="matrix(0.9971 0.0763 -0.0763 0.9971 42.9888 14.9659)">
				<stop  offset="0" style="stop-color:#2B3582"/>
				<stop  offset="1" style="stop-color:#150E42"/>
			</linearGradient>
			<path style="fill:url(#SVGID_00000006682500654872508330000013013854148832587959_);" d="M2651.589,2093.663
				c-3.152,9.548-6.342,18.962-9.321,28.145c-1.439,4.437-2.951,8.954-5.752,12.684c-10.307,13.727-44.438,6.558-58.436,2.909
				c4.82-17.441,8.492-22.777,22.26-34.562c1.219-1.044,2.496-2.176,2.947-3.716c0.345-1.179,0.153-2.44-0.043-3.653
				c-3.671-22.645-1.306-47.433-27.581-52.029c-18.119-3.171-36.03-9.335-52.697-17.03c-15.126-6.976-22.131,16.889-27.527,26.493
				c-9.089,16.175-20.318,34.357-25.171,52.443c-1.23,4.591-9.547,6.967-19.864,7.425c-10.326,0.577-24.401-1.277-32.997-5.003
				c-16.403-7.115,7.474-20.073,16.084-44.051c8.619-23.986-25.409-106.066-30.826-111.72c-5.427-5.646-64.036,12.887-80.458,14.097
				c-16.422,1.21-16.847-2.14-29.096,0.933c-12.248,3.064-20.183-1.859-33.844-12.451c-13.67-10.593,17.959-33.437,17.959-33.437
				s6.645-6.265,7.442-16.674c0.798-10.418,123.099-56.807,162.704-73.181c39.604-16.374,38.125-3.088,44.027-1.712
				c5.902,1.376,66.797,38.845,141.48,95.389c29.97,22.691,43.218,56.15,38.173,93.133
				C2667.753,2043.022,2659.799,2068.794,2651.589,2093.663z"/>
			
				<linearGradient id="SVGID_00000036955961191732114850000016596673621985036685_" gradientUnits="userSpaceOnUse" x1="2284.6204" y1="1788.7704" x2="2265.4031" y2="1951.243">
				<stop  offset="0" style="stop-color:#2B3582"/>
				<stop  offset="1" style="stop-color:#150E42"/>
			</linearGradient>
			<path style="fill:url(#SVGID_00000036955961191732114850000016596673621985036685_);" d="M2263.309,1940.562
				c0.6-0.157,13.685,5.322,11.381,8.264c-2.304,2.943-13.78,9.019-16.819,4.442
				C2254.832,1948.692,2257.179,1942.172,2263.309,1940.562z"/>
			
				<linearGradient id="SVGID_00000103245231637546647660000013412834501942227636_" gradientUnits="userSpaceOnUse" x1="2334.5642" y1="1792.8121" x2="2317.094" y2="1928.2062">
				<stop  offset="0" style="stop-color:#2B3582"/>
				<stop  offset="1" style="stop-color:#150E42"/>
			</linearGradient>
			<path style="fill:url(#SVGID_00000103245231637546647660000013412834501942227636_);" d="M2311.062,1925.89
				c0,0,2.295-5.831,5.652-5.42c3.357,0.411,8.952,1.761,6.974,3.459S2310.035,1927.918,2311.062,1925.89z"/>
			
				<linearGradient id="SVGID_00000178181030106385735890000017972054992973831063_" gradientUnits="userSpaceOnUse" x1="2723.2188" y1="1170.708" x2="2223.5776" y2="2180.4697" gradientTransform="matrix(0.9971 0.0763 -0.0763 0.9971 42.9888 14.9659)">
				<stop  offset="0" style="stop-color:#2B3582"/>
				<stop  offset="1" style="stop-color:#150E42"/>
			</linearGradient>
			<path style="opacity:0.34;fill:url(#SVGID_00000178181030106385735890000017972054992973831063_);" d="M2355.987,1899.373
				c0,0,0.111-0.124,0.34-0.334c0.231-0.203,0.564-0.523,1.033-0.861c0.931-0.691,2.314-1.642,4.358-2.268
				c1.027-0.282,2.24-0.531,3.687-0.283c0.718,0.1,1.484,0.405,2.194,0.848c0.732,0.436,1.315,1.105,1.789,1.796
				c0.909,1.422,1.255,2.977,1.375,4.42c0.044,0.371,0.044,0.724,0.052,1.082l0.01,0.539l-0.039,0.584
				c-0.05,0.633-0.1,1.268-0.15,1.903c-0.133,0.714-0.265,1.428-0.397,2.139c-0.148,0.696-0.382,1.332-0.573,1.99
				c-0.434,1.29-0.976,2.52-1.605,3.64c-0.294,0.572-0.637,1.101-0.981,1.611c-0.331,0.518-0.691,0.998-1.057,1.451
				c-0.355,0.461-0.723,0.889-1.1,1.284c-0.366,0.402-0.732,0.778-1.107,1.115c-0.727,0.692-1.45,1.262-2.109,1.733
				c-0.653,0.478-1.268,0.832-1.771,1.118c-1.013,0.565-1.649,0.769-1.649,0.769s0.399-0.532,1.037-1.452
				c0.32-0.459,0.689-1.025,1.1-1.669c0.209-0.318,0.422-0.661,0.638-1.027c0.225-0.358,0.452-0.737,0.671-1.143
				c0.233-0.395,0.469-0.807,0.685-1.249c0.231-0.431,0.473-0.871,0.68-1.344c0.22-0.465,0.465-0.928,0.655-1.43
				c0.198-0.497,0.446-0.979,0.611-1.506c0.401-1.022,0.721-2.101,1.025-3.193c0.127-0.548,0.256-1.1,0.385-1.654l0.277-1.6
				c0.063-0.628,0.126-1.256,0.189-1.881l-0.306-0.261l-0.317-0.143l0.005-0.059l0.001-0.015c0.008-0.1-0.009,0.12-0.007,0.093
				l0.002-0.025l0.346-0.38c0.011-0.27,0.197-0.532,0.18-0.783c-0.011-1.039-0.078-1.952-0.352-2.605
				c-0.284-0.633-0.612-1.05-1.301-1.357c-0.67-0.313-1.545-0.412-2.389-0.432c-0.855-0.017-1.676,0.068-2.42,0.162
				c-0.744,0.101-1.406,0.203-1.954,0.312C2356.631,1899.223,2355.987,1899.373,2355.987,1899.373z"/>
			
				<linearGradient id="SVGID_00000182487471108980405070000014450603231146108330_" gradientUnits="userSpaceOnUse" x1="2889.4307" y1="1252.9685" x2="2389.7959" y2="2262.7175" gradientTransform="matrix(0.9971 0.0763 -0.0763 0.9971 42.9888 14.9659)">
				<stop  offset="0" style="stop-color:#2B3582"/>
				<stop  offset="1" style="stop-color:#150E42"/>
			</linearGradient>
			<path style="opacity:0.34;fill:url(#SVGID_00000182487471108980405070000014450603231146108330_);" d="M2516.664,2024.648
				c-9.717,0.18-43.634,71.051-46.222,80.713c-1.23,4.591-9.544,6.967-19.689,7.429
				C2451.264,2111.563,2497.366,2000.659,2516.664,2024.648z"/>
		</g>
	</g>
</g>
</svg>
